<svg xmlns="http://www.w3.org/2000/svg" width="82" height="62" viewBox="0 0 82 62" fill="none">
  <path d="M69.4618 5.1924C64.0743 2.73176 58.3868 0.986092 52.5446 0C51.7451 1.42574 51.0218 2.89264 50.3775 4.39456C44.1544 3.45904 37.8259 3.45904 31.6028 4.39456C30.9583 2.8928 30.2349 1.42592 29.4358 0C23.5898 0.994419 17.8986 2.74423 12.5057 5.20527C1.79937 21.0077 -1.10294 36.4176 0.348215 51.6088C6.61808 56.2302 13.6359 59.7449 21.0965 62C22.7764 59.746 24.2629 57.3547 25.5402 54.8516C23.1141 53.9476 20.7725 52.8324 18.5425 51.5187C19.1294 51.094 19.7034 50.6565 20.258 50.2318C26.7469 53.2761 33.8292 54.8546 40.9999 54.8546C48.1705 54.8546 55.2528 53.2761 61.7417 50.2318C62.3028 50.6887 62.8768 51.1262 63.4573 51.5187C61.2229 52.8345 58.877 53.9519 56.4466 54.858C57.7223 57.36 59.2089 59.7492 60.8903 62C68.3573 59.7539 75.3805 56.2409 81.6515 51.6152C83.3542 33.9983 78.7427 18.73 69.4618 5.1924ZM27.3784 42.2663C23.3345 42.2663 19.9936 38.6052 19.9936 34.1013C19.9936 29.5973 23.2184 25.9041 27.3655 25.9041C31.5125 25.9041 34.8276 29.5973 34.7567 34.1013C34.6857 38.6052 31.4996 42.2663 27.3784 42.2663ZM54.6213 42.2663C50.571 42.2663 47.243 38.6052 47.243 34.1013C47.243 29.5973 50.4678 25.9041 54.6213 25.9041C58.7749 25.9041 62.0642 29.5973 61.9932 34.1013C61.9223 38.6052 58.7426 42.2663 54.6213 42.2663Z" fill="white"/>
</svg>