<svg xmlns="http://www.w3.org/2000/svg" width="352" height="129" viewBox="0 0 352 129" fill="none">
    <path d="M263.05 86.2571C264.033 105.009 276.472 120.44 293.218 126.101C298.385 127.848 303.962 128.664 309.739 128.362C334.238 127.078 353.056 106.145 351.77 81.6075C350.484 57.0699 329.581 38.2192 305.082 39.5031C280.582 40.7871 261.764 61.7196 263.05 86.2571Z" fill="#614637"/>
    <path d="M0.328468 47.0098C1.61443 71.5474 22.5176 90.3982 47.0171 89.1142C65.7624 88.1318 81.1818 75.6466 86.8148 58.8449C88.5439 53.6875 89.3509 48.1233 89.0488 42.3602C88.0661 23.6085 75.6266 8.17786 58.8808 2.51659C53.7139 0.769823 48.137 -0.0468974 42.3602 0.255854C17.8607 1.53982 -0.95749 22.4723 0.328468 47.0098Z" fill="#614637"/>
    <path d="M305.082 39.5031C280.582 40.7871 261.764 61.7196 263.05 86.2571C264.033 105.009 276.472 120.44 293.218 126.101L47.0171 89.1142C65.7624 88.1318 81.1818 75.6466 86.8148 58.8449C88.5439 53.6875 89.3509 48.1233 89.0488 42.3602C88.0661 23.6085 75.6266 8.17786 58.8808 2.51659L305.082 39.5031Z" fill="#614637"/>
    <path d="M263.085 86.34C264.066 105.056 276.5 120.456 293.24 126.106C298.404 127.849 303.979 128.663 309.754 128.361C334.245 127.077 353.058 106.183 351.775 81.692C350.491 57.2011 329.597 38.3878 305.106 39.6713C280.615 40.9549 261.802 61.8491 263.085 86.34Z" fill="#91735C"/>
    <path d="M258.057 86.5188C258.693 98.6544 263.643 109.537 271.338 117.758L69.59 87.4492C79.875 81.4327 87.7378 71.8214 91.5554 60.4343C93.481 54.6908 94.3774 48.4991 94.042 42.0985C93.406 29.9629 88.456 19.0801 80.7603 10.8596L282.508 41.168C267.046 50.2123 257.054 67.3831 258.057 86.5188ZM309.47 123.369C304.344 123.634 299.408 122.91 294.838 121.368C279.975 116.352 268.949 102.679 268.079 86.0783C266.94 64.3451 283.635 45.8035 305.368 44.6645C327.078 43.5267 345.603 60.1851 346.778 81.8846C347.911 103.665 331.206 122.23 309.477 123.368L309.47 123.369ZM46.7554 84.1211C25.0209 85.2601 6.46344 68.5354 5.32162 46.7482C4.1798 24.9609 20.8874 6.38806 42.6219 5.249C47.7566 4.9799 52.7017 5.70564 57.2795 7.25323C72.1472 12.2796 83.1836 25.9808 84.0557 42.6219C84.3243 47.7474 83.6067 52.6841 82.0741 57.2556C77.0704 72.1802 63.3783 83.2499 46.7554 84.1211Z" stroke="#614637" stroke-width="10"/>
</svg>