<svg xmlns="http://www.w3.org/2000/svg" width="319" height="183" viewBox="0 0 319 183" fill="none">
    <path d="M83.8864 131.582C87.288 149.082 79.356 166.157 65.2062 175.224C60.8403 178.021 55.8824 180.056 50.4829 181.105C27.5834 185.556 5.4113 170.601 0.960099 147.702C-3.4911 124.802 11.4642 102.63 34.3636 98.1789C57.2631 93.7277 79.4352 108.683 83.8864 131.582Z" fill="#735442"/>
    <path d="M317.269 35.0119C321.721 57.9114 306.765 80.0835 283.866 84.5347C266.345 87.9405 249.249 79.9851 240.192 65.803C237.412 61.4496 235.389 56.5095 234.343 51.1312C230.941 33.6313 238.873 16.5561 253.023 7.49011C257.389 4.69281 262.347 2.65798 267.747 1.60841C290.646 -2.84279 312.818 12.1125 317.269 35.0119Z" fill="#735442"/>
    <path d="M34.3636 98.1789C57.2631 93.7277 79.4352 108.683 83.8864 131.582C87.288 149.082 79.356 166.157 65.2062 175.224L283.866 84.5347C266.345 87.9405 249.249 79.9851 240.192 65.803C237.412 61.4496 235.389 56.5095 234.343 51.1312C230.941 33.6313 238.873 16.5561 253.023 7.49011L34.3636 98.1789Z" fill="#735442"/>
    <path d="M83.967 131.997C87.3686 149.497 79.4367 166.572 65.2868 175.638C60.9209 178.435 55.963 180.47 50.5635 181.52C27.664 185.971 5.4919 171.016 1.0407 148.116C-3.41051 125.217 11.5448 103.045 34.4442 98.5935C57.3437 94.1423 79.5158 109.098 83.967 131.997Z" fill="#91735C"/>
    <path d="M49.5288 176.197C29.4092 180.108 9.92652 167.027 5.90913 146.955C2.1149 126.84 15.2786 107.413 35.3983 103.502C55.5178 99.5908 75.0005 112.672 79.0179 132.744C81.913 148.092 74.9358 163.051 62.5088 171.014C58.6659 173.476 54.2982 175.27 49.5288 176.197ZM88.8751 131.043C88.8616 130.974 88.8481 130.905 88.8343 130.836C88.8212 130.767 88.8079 130.697 88.7945 130.628C85.3522 112.919 72.4338 99.4586 56.3228 94.4843L234.192 20.7132C229.209 29.9745 227.271 40.951 229.435 52.0852C230.602 58.0912 232.865 63.6193 235.978 68.4942C242.021 77.9562 251.266 84.9435 261.907 88.2291L84.4217 161.841C89.1792 152.702 90.9948 141.948 88.8751 131.043ZM239.251 50.1771C236.254 34.7565 243.238 19.6981 255.721 11.7001C259.564 9.23791 263.931 7.44362 268.701 6.51655C288.889 2.59225 308.437 15.7772 312.361 35.966C316.286 56.1548 303.101 75.7022 282.912 79.6265C267.472 82.6277 252.396 75.623 244.406 63.1117C241.959 59.2799 240.175 54.9278 239.251 50.1771Z" stroke="#735442" stroke-width="10"/>
</svg>